<svg xmlns="http://www.w3.org/2000/svg" width="124" height="124"><path fill="#6B67A5" d="M73.99 31.086c0 2.868-4.229 4.625-1.959 7.625 1.148 1.518-.688 4.313.438 5.5.999 1.055 9.816 6.891 10.375 7.75 2.604 4-1.146 7.963-1.188 6.75-.104-3.021-6.625-4.375-10.188-7.625-.508-.464-2.875-2.125-2.875-2.125s-.416 2.416-1.583 4.25c-1.167 1.833-.501 2.666.833 3.832 1.334 1.168 5 6.417 4.563 11.355-.429 4.84-.563 9.979 4.104 12.145 4.667 2.168 5.803 3.09 1.636 3.422-4.167.334-11.174-.068-11.174-.068s-3.879-6.811-3.504-11.561c.324-4.109-1.375-4.313-1.375-4.313-1.188.375-.938 2.5-1.375 3.625-.249.641-.208 1.561-3.042 3.895s-2.833 4.166 0 6 5 2.834 1 3.5c-4 .668-12-2.666-12.5-4.832-.5-2.168 1.007-5.154 3.171-8.316 4.829-7.057 2.329-9.181.996-12.027-.776-1.656.2-4.862.656-6.281.281-.875-.33-1.201-1.031-.625-3.198 2.63-4.5 5.063-6.375 5.688-1.106.369-3.25.563-5.417-.438s-2.482-2.276-2.482-2.276 1.424.556 4.731-.035c2.826-.505 11.464-23.123 17.143-23.384 4.774-.22 2.067-1.637 6.649-6.305.277-.282 4.184-1.531 6.75-.313 2.499 1.185 3.023 3.874 3.023 5.187z"/><ellipse fill="none" stroke="#1C2450" stroke-width="2" stroke-miterlimit="10" cx="62" cy="62.083" rx="61" ry="61.083"/></svg>